<svg data-v-423bf9ae="" xmlns="http://www.w3.org/2000/svg" viewBox="0 0 301.35327284771955 60" class="font"><!----><!----><!----><g data-v-423bf9ae="" id="ab8f7ca9-f735-4d22-acbf-77e0c312169e" fill="#17252a" transform="matrix(4.731861084854148,0,0,4.731861084854148,-4.30599612152227,-3.312303477850108)"><path d="M8.67 10.50L8.67 0.70L7.91 0.70L7.91 5.36L1.67 5.36L1.67 0.70L0.91 0.70L0.91 10.50L1.67 10.50L1.67 6.05L7.91 6.05L7.91 10.50ZM15.86 3.58L14.13 7.66L13.33 9.67L12.52 7.67L10.91 3.58L10.16 3.58L12.94 10.42L11.66 13.38L12.39 13.38L16.60 3.58ZM21.06 4.13C22.65 4.13 23.88 5.31 23.88 7.03C23.88 8.75 22.68 9.94 21.06 9.94C19.50 9.94 18.23 8.96 18.23 7.04C18.23 5.10 19.50 4.13 21.06 4.13ZM23.90 0.70L23.90 5.10C23.34 3.98 22.22 3.47 21.03 3.47C19.10 3.47 17.56 4.76 17.56 7.04C17.56 9.34 19.08 10.61 21.01 10.61C22.19 10.61 23.32 10.02 23.90 8.97L23.90 10.50L24.57 10.50L24.57 0.70ZM26.54 3.58L26.54 10.50L27.23 10.50L27.23 6.47C27.23 5.21 28.22 4.17 29.51 4.16C29.92 4.16 30.32 4.26 30.69 4.48L31.00 3.92C30.53 3.64 30.03 3.50 29.51 3.51C28.63 3.51 27.65 3.88 27.22 4.82L27.19 3.58ZM35.22 10.60C37.17 10.60 38.74 9.25 38.74 7.06C38.74 4.86 37.17 3.46 35.22 3.46C33.28 3.46 31.71 4.86 31.71 7.06C31.71 9.25 33.28 10.60 35.22 10.60ZM35.22 9.93C33.66 9.93 32.38 8.85 32.38 7.06C32.38 5.26 33.66 4.10 35.22 4.10C36.79 4.10 38.07 5.26 38.07 7.06C38.07 8.85 36.79 9.93 35.22 9.93ZM41.22 5.85C42.39 5.85 43.40 5.85 44.58 5.85C45.89 5.85 47.28 6.40 47.29 7.92C47.29 9.48 45.71 9.77 44.48 9.77L41.22 9.77ZM41.22 1.34L44.48 1.34C45.70 1.34 46.98 1.95 46.98 3.37C46.98 4.77 45.75 5.14 44.58 5.14L41.22 5.14ZM44.48 0.70C43.05 0.70 41.87 0.70 40.46 0.70L40.46 10.50C41.89 10.50 43.05 10.50 44.48 10.50C46.16 10.50 48.03 9.95 48.03 7.94C48.03 6.80 47.33 5.81 46.10 5.47C47.08 5.17 47.70 4.38 47.70 3.37C47.70 1.51 46.13 0.70 44.48 0.70ZM52.84 10.60C53.94 10.60 55.15 10.15 55.82 9.27L55.33 8.88C54.81 9.56 53.75 9.93 52.84 9.93C51.41 9.93 50.16 8.99 50.02 7.36L56.25 7.36C56.52 4.66 54.78 3.47 52.84 3.47C50.89 3.47 49.32 4.97 49.32 7.04C49.32 9.24 50.89 10.60 52.84 10.60ZM50.02 6.76C50.18 5.07 51.41 4.10 52.84 4.10C54.50 4.10 55.62 5.05 55.64 6.76ZM61.15 10.60C62.26 10.60 63.46 10.15 64.13 9.27L63.64 8.88C63.13 9.56 62.06 9.93 61.15 9.93C59.72 9.93 58.48 8.99 58.34 7.36L64.57 7.36C64.83 4.66 63.10 3.47 61.15 3.47C59.21 3.47 57.64 4.97 57.64 7.04C57.64 9.24 59.21 10.60 61.15 10.60ZM58.34 6.76C58.49 5.07 59.72 4.10 61.15 4.10C62.82 4.10 63.94 5.05 63.95 6.76Z"></path></g><!----><!----></svg>